<svg xmlns="http://www.w3.org/2000/svg" xmlns:xlink="http://www.w3.org/1999/xlink" width="18" height="18" viewBox="0 0 18 18">
    <defs>
        <path id="kvskv3l9wa" d="M12.25 1.5H9.115C8.8.63 7.975 0 7 0c-.975 0-1.8.63-2.115 1.5H1.75C.925 1.5.25 2.175.25 3v12c0 .825.675 1.5 1.5 1.5h10.5c.825 0 1.5-.675 1.5-1.5V3c0-.825-.675-1.5-1.5-1.5zM7 1.5c.412 0 .75.337.75.75S7.412 3 7 3s-.75-.337-.75-.75.338-.75.75-.75zM3.25 3v2.25h7.5V3h1.5v12H1.75V3h1.5zm6.321 3.576L6.233 9.914 4.724 8.405 3.633 9.497l2.57 2.57 4.429-4.43-1.06-1.06z"/>
    </defs>
    <g fill="none" fill-rule="evenodd">
        <g>
            <g>
                <g>
                    <g transform="translate(-572 -117) translate(275 110) translate(297 7)">
                        <mask id="t5xvar61wb" fill="#fff">
                            <use xlink:href="#kvskv3l9wa"/>
                        </mask>
                        <g fill="#003E7B" mask="url(#t5xvar61wb)">
                            <path d="M0 0H37.5V37.5H0z" transform="translate(-11.75 -9.75)"/>
                        </g>
                    </g>
                </g>
            </g>
        </g>
    </g>
</svg>
